<?xml version="1.0" encoding="UTF-8"?>
<svg width="319px" height="398px" viewBox="0 0 319 398" version="1.1" xmlns="http://www.w3.org/2000/svg" xmlns:xlink="http://www.w3.org/1999/xlink">
    <!-- Generator: Sketch 49 (51002) - http://www.bohemiancoding.com/sketch -->
    <title>Spoon-Logo-Vector</title>
    <desc>Created with Sketch.</desc>
    <defs></defs>
    <g id="Page-1" stroke="none" stroke-width="1" fill="none" fill-rule="evenodd">
        <g id="Spoon-Logo-Vector" transform="translate(-130.000000, -93.000000)">
            <polygon id="Fill-1" points="0 599.94 600 599.94 600 0 0 0"></polygon>
            <path d="M230.07,107.19 C265.41,89.03 309.17,88.15 344.98,105.52 C320.41,113.95 300.99,133.55 289.14,156.26 C267.41,198.08 267.94,250.71 290.55,292.08 C237.13,292.13 183.69,292.01 130.27,292.12 C129.85,255.96 137.92,219.63 153.92,187.18 C170.47,153.74 196.42,124.08 230.07,107.19" id="Fill-2" fill="#FFFFFF"></path>
            <path d="M291.07,291.85 C343.58,291.79 396.09,291.85 448.590744,291.81 C448.7,336.71 436.61,382.09 411.57,419.59 C392.49,448.21 365.18,472.21 332.4,483.62 C301.45,494.67 266.38,493.08 236.37,479.75 C255.78,473.18 272.35,459.7 284.15,443.1 C301.09,419.38 309.24,389.93 308.86,360.92 C308.87,336.9 302.8,312.84 291.07,291.85" id="Fill-3" fill="#FFFFFF"></path>
        </g>
    </g>
</svg>