<?xml version="1.0" standalone="no"?>
<!DOCTYPE svg PUBLIC "-//W3C//DTD SVG 20010904//EN"
 "http://www.w3.org/TR/2001/REC-SVG-20010904/DTD/svg10.dtd">
<svg version="1.0" xmlns="http://www.w3.org/2000/svg"
 width="125.000000pt" height="125.000000pt" viewBox="0 0 125.000000 125.000000"
 preserveAspectRatio="xMidYMid meet">
<metadata>
Created by potrace 1.11, written by Peter Selinger 2001-2013
</metadata>
<g transform="translate(0.000000,125.000000) scale(0.100000,-0.100000)"
fill="#000000" stroke="none">
<path d="M531 1235 c-223 -49 -394 -294 -405 -580 l-1 -30 248 0 c136 0 247 0
247 0 -66 146 -63 306 8 438 29 53 92 114 135 130 39 13 24 25 -59 42 -82 17
-90 17 -173 0z"/>
<path d="M630 625 c0 0 10 -28 22 -60 29 -79 31 -224 4 -306 -24 -74 -79 -146
-144 -189 l-54 -35 44 -14 c57 -18 175 -18 230 -1 171 55 306 211 358 414 16
62 26 146 21 181 -1 7 -88 10 -241 10 -132 0 -240 0 -240 0z"/>
</g>
</svg>
