<?xml version="1.0" standalone="no"?>
<!DOCTYPE svg PUBLIC "-//W3C//DTD SVG 20010904//EN"
 "http://www.w3.org/TR/2001/REC-SVG-20010904/DTD/svg10.dtd">
<svg version="1.0" xmlns="http://www.w3.org/2000/svg"
 width="512.000000pt" height="512.000000pt" viewBox="0 0 512.000000 512.000000"
 preserveAspectRatio="xMidYMid meet">
<metadata>
Created by potrace 1.11, written by Peter Selinger 2001-2013
</metadata>
<g transform="translate(0.000000,512.000000) scale(0.100000,-0.100000)"
fill="#000000" stroke="none">
<path d="M2730 5004 c-432 -30 -804 -131 -1195 -326 -282 -141 -511 -307 -753
-546 -251 -249 -468 -605 -568 -937 -68 -224 -96 -414 -96 -650 0 -189 9 -284
43 -450 145 -702 636 -1310 1333 -1653 420 -206 855 -305 1341 -305 412 1 751
60 1100 193 305 116 604 299 786 480 124 123 168 226 168 395 1 166 -52 300
-163 411 -87 87 -167 123 -354 160 -144 29 -198 54 -242 116 -35 49 -39 98
-11 144 11 17 121 122 245 233 124 111 253 234 287 273 70 82 151 203 198 296
37 74 97 246 111 323 62 321 3 654 -165 938 -269 453 -889 806 -1556 886 -121
14 -415 25 -509 19z m430 -389 c477 -56 872 -232 1165 -521 296 -291 369 -748
178 -1109 -74 -140 -137 -212 -352 -402 -315 -279 -361 -332 -401 -461 -24
-77 -27 -214 -6 -283 36 -119 108 -219 217 -299 94 -70 155 -94 314 -126 66
-14 136 -32 155 -42 68 -33 102 -125 80 -213 -14 -54 -26 -68 -120 -145 -313
-255 -735 -424 -1210 -485 -157 -21 -564 -18 -713 4 -599 89 -1075 324 -1443
710 -181 190 -299 371 -397 607 -282 685 -121 1469 414 2010 417 421 975 688
1579 755 160 17 392 18 540 0z"/>
<path d="M2039 4237 c-98 -41 -158 -96 -203 -185 -97 -191 -14 -423 184 -516
58 -27 75 -31 155 -31 80 0 97 4 155 31 297 140 298 554 2 692 -82 39 -213 42
-293 9z"/>
<path d="M3268 4241 c-183 -74 -285 -249 -248 -428 52 -250 320 -383 544 -271
61 31 143 115 173 177 25 50 28 67 28 161 0 99 -2 110 -32 171 -39 79 -102
140 -181 177 -77 35 -214 42 -284 13z"/>
<path d="M1113 3492 c-100 -36 -180 -109 -225 -208 -19 -40 -23 -66 -23 -149
0 -93 2 -105 33 -167 67 -137 187 -211 342 -212 75 -1 93 3 151 30 93 44 142
92 187 182 34 71 37 82 36 161 -1 113 -27 182 -100 260 -74 81 -150 115 -264
118 -63 3 -98 -1 -137 -15z"/>
<path d="M1262 2299 c-120 -23 -221 -103 -275 -217 -28 -60 -32 -77 -32 -157
0 -80 4 -97 32 -157 138 -292 546 -294 689 -3 26 54 29 70 29 160 0 87 -3 107
-26 155 -55 115 -160 197 -283 219 -67 12 -73 12 -134 0z"/>
<path d="M2475 1834 c-239 -37 -431 -217 -480 -449 -27 -130 -11 -248 51 -374
45 -91 142 -192 229 -237 105 -55 160 -69 275 -69 76 0 120 5 160 19 207 70
352 228 395 431 27 129 11 248 -50 372 -64 130 -203 246 -344 287 -57 17 -186
27 -236 20z"/>
</g>
</svg>
